<?xml version="1.0" encoding="UTF-8" standalone="no"?>
<svg
   xmlns:dc="http://purl.org/dc/elements/1.1/"
   xmlns:cc="http://creativecommons.org/ns#"
   xmlns:rdf="http://www.w3.org/1999/02/22-rdf-syntax-ns#"
   xmlns:svg="http://www.w3.org/2000/svg"
   xmlns="http://www.w3.org/2000/svg"
   viewBox="0 0 704.46936 561.26001"
   height="561.26001"
   width="704.46936"
   xml:space="preserve"
   id="svg2"
   version="1.1"><metadata
     id="metadata8"><rdf:RDF><cc:Work
         rdf:about=""><dc:format>image/svg+xml</dc:format><dc:type
           rdf:resource="http://purl.org/dc/dcmitype/StillImage" /></cc:Work></rdf:RDF></metadata><defs
     id="defs6"><clipPath
       id="clipPath24"
       clipPathUnits="userSpaceOnUse"><path
         id="path22"
         d="M 0,420.945 H 528.352 V 0 H 0 Z" /></clipPath></defs><g
     transform="matrix(1.3333333,0,0,-1.3333333,0,561.26)"
     id="g10"><path
       id="path12"
       style="fill:#294098;fill-opacity:1;fill-rule:nonzero;stroke:none"
       d="M 342.859,57.864 H 116.683 v 22.931 h 226.176 z" /><g
       transform="translate(104.9003,158.7994)"
       id="g14"><path
         id="path16"
         style="fill:#211d1d;fill-opacity:1;fill-rule:nonzero;stroke:none"
         d="m 0,0 v -7.243 h -23.042 v 52.425 h 8.369 l 0,-45.182 z" /></g><g
       id="g18"><g
         clip-path="url(#clipPath24)"
         id="g20"><path
           id="path26"
           style="fill:#211d1d;fill-opacity:1;fill-rule:nonzero;stroke:none"
           d="m 109.778,195.275 h 8.144 v -43.719 h -8.144 z m 4.053,13.397 c 3.177,0 4.766,-1.538 4.766,-4.615 0,-3.028 -1.589,-4.541 -4.766,-4.541 -3.178,0 -4.766,1.513 -4.766,4.541 0,3.077 1.588,4.615 4.766,4.615" /><g
           transform="translate(122.9125,188.9708)"
           id="g28"><path
             id="path30"
             style="fill:#211d1d;fill-opacity:1;fill-rule:nonzero;stroke:none"
             d="m 0,0 v 7.093 h 4.841 l 2.102,8.218 h 5.741 V 7.093 h 8.068 V 0 h -8.068 v -25.893 c 0,-2.852 1.363,-4.278 4.09,-4.278 1.376,0 2.915,0.324 4.617,0.975 v -7.542 c -2.678,-0.651 -4.704,-0.976 -6.079,-0.976 -7.231,0 -10.846,3.839 -10.846,11.521 L 4.466,0 Z" /></g><g
           transform="translate(168.0195,178.0133)"
           id="g32"><path
             id="path34"
             style="fill:#211d1d;fill-opacity:1;fill-rule:nonzero;stroke:none"
             d="m 0,0 v 6.267 c 0,3.503 -1.889,5.254 -5.667,5.254 -3.752,0 -5.628,-1.751 -5.628,-5.254 V 0 Z m 7.693,-6.567 h -18.988 v -8.144 c 0,-3.477 1.876,-5.216 5.628,-5.216 3.729,0 5.592,1.739 5.592,5.216 v 3.152 h 8.069 v -3.001 c 0,-3.978 -1.202,-7.081 -3.603,-9.307 -2.402,-2.227 -5.754,-3.34 -10.058,-3.34 -4.303,0 -7.643,1.113 -10.019,3.34 -2.401,2.226 -3.603,5.329 -3.603,9.307 V 6.117 c 0,4.002 1.202,7.117 3.603,9.343 2.376,2.227 5.716,3.34 10.019,3.34 4.304,0 7.656,-1.125 10.058,-3.376 2.401,-2.252 3.603,-5.355 3.603,-9.307 V -6.492 H 7.693 Z" /></g><g
           transform="translate(201.4931,196.2135)"
           id="g36"><path
             id="path38"
             style="fill:#211d1d;fill-opacity:1;fill-rule:nonzero;stroke:none"
             d="m 0,0 v -8.293 c -0.826,0.25 -1.876,0.375 -3.152,0.375 -1.752,0 -3.202,-0.6 -4.353,-1.801 -1.151,-1.201 -1.726,-2.802 -1.726,-4.804 V -70.77 h -8.144 v 70.62 h 7.769 v -5.93 c 0.199,1.552 0.987,2.965 2.364,4.242 1.375,1.275 3.251,1.913 5.628,1.913 C -0.863,0.075 -0.325,0.05 0,0" /></g><g
           transform="translate(212.3393,163.9405)"
           id="g40"><path
             id="path42"
             style="fill:#211d1d;fill-opacity:1;fill-rule:nonzero;stroke:none"
             d="m 0,0 v -1.463 c 0,-3.128 1.738,-4.691 5.216,-4.691 3.952,0 5.929,1.738 5.929,5.216 V 7.581 L 4.541,5.291 C 2.839,4.791 1.65,4.14 0.976,3.34 0.325,2.539 0,1.426 0,0 m -7.769,17.75 v 2.853 c 0,3.977 1.151,7.017 3.453,9.118 2.301,2.102 5.654,3.152 10.057,3.152 4.404,0 7.768,-1.05 10.094,-3.152 2.302,-2.101 3.454,-5.141 3.454,-9.118 v -32.987 h -7.994 v 4.316 c -1.176,-3.177 -3.941,-4.766 -8.294,-4.766 -3.602,0 -6.367,0.913 -8.293,2.739 -1.901,1.851 -2.852,4.491 -2.852,7.918 V 0.15 c 0,2.703 0.738,4.916 2.214,6.642 1.476,1.727 3.728,3.127 6.756,4.203 l 10.319,3.603 v 6.079 c 0,1.676 -0.426,2.914 -1.276,3.715 -0.851,0.801 -2.226,1.201 -4.128,1.201 -1.901,0 -3.265,-0.4 -4.091,-1.201 C 0.8,23.591 0.375,22.353 0.375,20.677 V 17.75 Z" /></g><g
           transform="translate(236.2055,188.9708)"
           id="g44"><path
             id="path46"
             style="fill:#211d1d;fill-opacity:1;fill-rule:nonzero;stroke:none"
             d="m 0,0 v 7.093 h 4.841 l 2.101,8.218 h 5.743 V 7.093 h 8.067 V 0 h -8.067 v -25.893 c 0,-2.852 1.362,-4.278 4.089,-4.278 1.376,0 2.914,0.324 4.617,0.975 v -7.542 c -2.678,-0.651 -4.704,-0.976 -6.079,-0.976 -7.231,0 -10.846,3.839 -10.846,11.521 L 4.466,0 Z" /></g><g
           transform="translate(281.1625,196.0636)"
           id="g48"><path
             id="path50"
             style="fill:#211d1d;fill-opacity:1;fill-rule:nonzero;stroke:none"
             d="M 0,0 H 8.219 V -44.507 H 0.488 v 4.541 c -0.426,-1.176 -1.377,-2.277 -2.852,-3.302 -1.501,-1.026 -3.578,-1.539 -6.23,-1.539 -3.327,0 -5.853,1 -7.58,3.002 -1.701,2.001 -2.552,4.666 -2.552,7.993 V 0 h 8.144 v -32.423 c 0,-3.503 1.713,-5.254 5.141,-5.254 1.526,0 2.814,0.463 3.865,1.388 1.051,0.926 1.576,2.152 1.576,3.679 z" /></g><g
           transform="translate(315.6117,196.2135)"
           id="g52"><path
             id="path54"
             style="fill:#211d1d;fill-opacity:1;fill-rule:nonzero;stroke:none"
             d="m 0,0 v -8.293 c -0.825,0.25 -1.876,0.375 -3.152,0.375 -1.751,0 -3.202,-0.6 -4.353,-1.801 -1.151,-1.201 -1.726,-2.802 -1.726,-4.804 v -30.134 h -8.144 V -0.15 h 7.769 v -5.93 c 0.199,1.552 0.987,2.965 2.364,4.242 1.375,1.275 3.252,1.913 5.629,1.913 C -0.862,0.075 -0.325,0.05 0,0" /></g><g
           transform="translate(338.7279,178.0133)"
           id="g56"><path
             id="path58"
             style="fill:#211d1d;fill-opacity:1;fill-rule:nonzero;stroke:none"
             d="m 0,0 v 6.267 c 0,3.503 -1.889,5.254 -5.666,5.254 -3.753,0 -5.629,-1.751 -5.629,-5.254 V 0 Z m 7.693,-6.567 h -18.988 v -8.144 c 0,-3.477 1.876,-5.216 5.629,-5.216 3.728,0 5.592,1.739 5.592,5.216 v 3.152 h 8.068 v -3.001 c 0,-3.978 -1.201,-7.081 -3.602,-9.307 -2.403,-2.227 -5.755,-3.34 -10.058,-3.34 -4.304,0 -7.644,1.113 -10.02,3.34 -2.401,2.226 -3.602,5.329 -3.602,9.307 V 6.117 c 0,4.002 1.201,7.117 3.602,9.343 2.376,2.227 5.716,3.34 10.02,3.34 4.303,0 7.655,-1.125 10.058,-3.376 2.401,-2.252 3.602,-5.355 3.602,-9.307 V -6.492 H 7.693 Z" /></g><g
           transform="translate(93.4164,126.3653)"
           id="g60"><path
             id="path62"
             style="fill:#211d1d;fill-opacity:1;fill-rule:nonzero;stroke:none"
             d="m 0,0 v 7.093 h 4.541 v 1.464 c 0,7.88 3.915,11.82 11.746,11.82 1.175,0 2.463,-0.126 3.865,-0.375 v -6.605 c -1.402,0.15 -2.302,0.226 -2.702,0.226 -1.651,0 -2.84,-0.401 -3.565,-1.202 -0.75,-0.8 -1.126,-2.063 -1.126,-3.79 V 7.093 h 6.68 V 0 h -6.68 V -68.501 H 4.541 L 4.541,0 Z" /></g><g
           transform="translate(135.9716,115.4078)"
           id="g64"><path
             id="path66"
             style="fill:#211d1d;fill-opacity:1;fill-rule:nonzero;stroke:none"
             d="m 0,0 v 6.267 c 0,3.503 -1.889,5.254 -5.667,5.254 -3.752,0 -5.628,-1.751 -5.628,-5.254 V 0 Z m 7.693,-6.567 h -18.988 v -8.144 c 0,-3.477 1.876,-5.216 5.628,-5.216 3.728,0 5.592,1.739 5.592,5.216 v 3.152 h 8.068 v -3.001 c 0,-3.978 -1.201,-7.081 -3.602,-9.307 -2.402,-2.227 -5.755,-3.34 -10.058,-3.34 -4.303,0 -7.643,1.113 -10.019,3.34 -2.402,2.226 -3.603,5.329 -3.603,9.307 V 6.117 c 0,4.002 1.201,7.117 3.603,9.344 2.376,2.226 5.716,3.34 10.019,3.34 4.303,0 7.656,-1.126 10.058,-3.377 2.401,-2.252 3.602,-5.355 3.602,-9.307 V -6.492 h -0.3 z" /></g><g
           transform="translate(161.6777,116.2335)"
           id="g68"><path
             id="path70"
             style="fill:#211d1d;fill-opacity:1;fill-rule:nonzero;stroke:none"
             d="m 0,0 7.917,-4.091 c 4.704,-2.201 7.056,-5.553 7.056,-10.057 v -1.838 c 0,-3.954 -1.151,-6.955 -3.453,-9.007 -2.302,-2.026 -5.628,-3.039 -9.982,-3.039 -4.303,0 -7.605,1.013 -9.907,3.039 -2.326,2.052 -3.49,5.078 -3.49,9.081 v 2.477 h 8.068 v -2.627 c 0,-3.227 1.776,-4.84 5.329,-4.84 3.627,0 5.441,1.588 5.441,4.765 v 1.388 c 0,2.052 -1.176,3.641 -3.527,4.767 l -8.143,3.978 c -4.504,2.301 -6.755,5.766 -6.755,10.394 v 1.464 c 0,3.928 1.1,6.929 3.302,9.006 2.201,2.077 5.454,3.115 9.757,3.115 4.303,0 7.555,-1.038 9.757,-3.115 2.201,-2.077 3.302,-5.078 3.302,-9.006 V 3.753 H 6.68 v 2.251 c 0,1.676 -0.389,2.927 -1.164,3.753 -0.751,0.826 -2.052,1.238 -3.903,1.238 -1.852,0 -3.165,-0.4 -3.94,-1.201 C -3.078,8.994 -3.453,7.755 -3.453,6.08 V 4.916 C -3.453,2.664 -2.302,1.025 0,0" /></g><g
           transform="translate(179.5024,126.3653)"
           id="g72"><path
             id="path74"
             style="fill:#211d1d;fill-opacity:1;fill-rule:nonzero;stroke:none"
             d="m 0,0 v 7.093 h 4.841 l 2.101,8.218 h 5.742 V 7.093 h 8.068 V 0 h -8.068 v -25.893 c 0,-2.852 1.363,-4.278 4.09,-4.278 1.376,0 2.914,0.324 4.617,0.975 v -7.542 c -2.678,-0.651 -4.704,-0.976 -6.08,-0.976 -7.23,0 -10.845,3.84 -10.845,11.521 L 4.466,0 Z" /></g><path
           id="path76"
           style="fill:#211d1d;fill-opacity:1;fill-rule:nonzero;stroke:none"
           d="m 206.109,132.67 h 8.144 V 88.952 h -8.144 z m 4.053,13.397 c 3.176,0 4.766,-1.539 4.766,-4.615 0,-3.028 -1.59,-4.541 -4.766,-4.541 -3.178,0 -4.766,1.513 -4.766,4.541 0,3.076 1.588,4.615 4.766,4.615" /><g
           transform="translate(227.7992,133.4581)"
           id="g78"><path
             id="path80"
             style="fill:#211d1d;fill-opacity:1;fill-rule:nonzero;stroke:none"
             d="m 0,0 3.603,-18.238 c 0.6,-2.952 1.137,-5.905 1.613,-8.856 0.45,-2.952 0.763,-5.167 0.938,-6.643 l 0.3,-2.251 c 0.65,5.229 1.651,11.145 3.003,17.75 L 13.06,0 h 8.068 L 11.596,-44.506 H 1.388 L -8.218,0 Z" /></g><g
           transform="translate(260.4477,101.3351)"
           id="g82"><path
             id="path84"
             style="fill:#211d1d;fill-opacity:1;fill-rule:nonzero;stroke:none"
             d="m 0,0 v -1.463 c 0,-3.128 1.738,-4.691 5.216,-4.691 3.953,0 5.93,1.738 5.93,5.216 V 7.581 L 4.541,5.292 C 2.839,4.791 1.65,4.14 0.976,3.34 0.325,2.539 0,1.426 0,0 m -7.769,17.75 v 2.853 c 0,3.977 1.151,7.017 3.454,9.118 2.3,2.102 5.653,3.153 10.056,3.153 4.404,0 7.769,-1.051 10.095,-3.153 2.302,-2.101 3.453,-5.141 3.453,-9.118 v -32.986 h -7.994 v 4.315 c -1.176,-3.177 -3.941,-4.766 -8.293,-4.766 -3.603,0 -6.367,0.913 -8.293,2.739 -1.901,1.851 -2.853,4.491 -2.853,7.919 V 0.15 c 0,2.703 0.738,4.916 2.214,6.643 1.477,1.726 3.728,3.126 6.755,4.202 l 10.321,3.603 v 6.079 c 0,1.676 -0.426,2.914 -1.277,3.715 -0.85,0.801 -2.226,1.201 -4.128,1.201 -1.901,0 -3.264,-0.4 -4.091,-1.201 C 0.8,23.591 0.375,22.353 0.375,20.677 V 17.75 Z" /></g><path
           id="path86"
           style="fill:#211d1d;fill-opacity:1;fill-rule:nonzero;stroke:none"
           d="m 288.254,145.279 h 8.144 V 88.952 h -8.144 z" /><g
           transform="translate(128.5903,65.7232)"
           id="g88"><path
             id="path90"
             style="fill:#ffffff;fill-opacity:1;fill-rule:nonzero;stroke:none"
             d="M 0,0 -0.865,2.55 -1.867,5.482 C -1.83,4.711 -1.812,3.734 -1.812,2.55 V -3.324 H -3.734 V 9.398 H -1.63 L 0.037,4.636 0.929,1.913 c 0.249,0.825 0.547,1.742 0.893,2.75 L 3.506,9.398 H 5.61 V -3.324 H 3.688 V 2.55 L 3.725,5.464 2.741,2.568 1.858,0 Z" /></g><g
           transform="translate(140.1908,67.381)"
           id="g92"><path
             id="path94"
             style="fill:#ffffff;fill-opacity:1;fill-rule:nonzero;stroke:none"
             d="M 0,0 H 2.104 L 1.895,0.965 C 1.415,3.242 1.135,4.86 1.057,5.819 0.959,4.86 0.674,3.242 0.201,0.965 Z m 3.151,-4.981 -0.692,3.26 h -2.814 l -0.692,-3.26 H -3.06 L -0.282,7.741 H 2.386 L 5.164,-4.981 Z" /></g><g
           transform="translate(152.2021,62.3995)"
           id="g96"><path
             id="path98"
             style="fill:#ffffff;fill-opacity:1;fill-rule:nonzero;stroke:none"
             d="m 0,0 h -2.031 v 4.125 l -3.024,8.597 h 2.068 l 1.156,-3.524 c 0.474,-1.396 0.75,-2.38 0.829,-2.951 0.097,0.583 0.377,1.566 0.838,2.951 l 1.157,3.524 h 2.03 L 0,4.125 Z" /></g><g
           transform="translate(163.4189,71.0509)"
           id="g100"><path
             id="path102"
             style="fill:#ffffff;fill-opacity:1;fill-rule:nonzero;stroke:none"
             d="m 0,0 v 2.204 l 2.258,1.867 h 1.94 V -8.651 H 2.204 V 1.794 Z" /></g><g
           transform="translate(175.9213,68.2008)"
           id="g104"><path
             id="path106"
             style="fill:#ffffff;fill-opacity:1;fill-rule:nonzero;stroke:none"
             d="M 0,0 -1.831,-1.211 C -2.34,-1.545 -2.662,-1.834 -2.796,-2.077 -2.936,-2.319 -3.005,-2.684 -3.005,-3.169 V -4.044 H 1.457 V -5.801 H -5 v 2.722 c 0,0.747 0.131,1.351 0.392,1.813 0.261,0.455 0.683,0.877 1.266,1.266 l 1.958,1.284 c 0.322,0.213 0.537,0.44 0.646,0.683 0.104,0.243 0.155,0.595 0.155,1.056 v 0.856 c 0,0.45 -0.097,0.789 -0.291,1.02 -0.201,0.225 -0.531,0.337 -0.993,0.337 -0.856,0 -1.284,-0.452 -1.284,-1.357 V 2.887 h -1.976 v 1.065 c 0,0.947 0.27,1.697 0.81,2.25 0.541,0.552 1.357,0.828 2.45,0.828 1.105,0 1.928,-0.276 2.468,-0.828 C 1.142,5.649 1.412,4.899 1.412,3.952 V 2.814 C 1.412,2.146 1.305,1.594 1.093,1.156 0.875,0.719 0.51,0.333 0,0" /></g><g
           transform="translate(181.5658,64.6217)"
           id="g108"><path
             id="path110"
             style="fill:#ffffff;fill-opacity:1;fill-rule:nonzero;stroke:none"
             d="m 0,0 c 0.413,0 0.689,-0.112 0.829,-0.337 0.133,-0.225 0.139,-0.51 0.018,-0.856 -0.128,-0.34 -0.395,-0.923 -0.802,-1.749 -0.412,-0.826 -0.689,-1.35 -0.828,-1.575 h -1.248 c 0.049,0.237 0.185,0.85 0.41,1.839 0.225,0.99 0.343,1.503 0.355,1.539 0.073,0.383 0.206,0.668 0.401,0.857 C -0.671,-0.094 -0.382,0 0,0" /></g><g
           transform="translate(184.8158,71.0509)"
           id="g112"><path
             id="path114"
             style="fill:#ffffff;fill-opacity:1;fill-rule:nonzero;stroke:none"
             d="m 0,0 v 2.204 l 2.258,1.867 h 1.94 V -8.651 H 2.204 V 1.794 Z" /></g><g
           transform="translate(192.228,66.1515)"
           id="g116"><path
             id="path118"
             style="fill:#ffffff;fill-opacity:1;fill-rule:nonzero;stroke:none"
             d="m 0,0 h 1.976 v -0.783 c 0,-0.911 0.44,-1.366 1.32,-1.366 0.887,0 1.33,0.455 1.33,1.366 v 1.302 c 0,0.844 -0.437,1.266 -1.311,1.266 H 2.368 v 1.757 h 0.947 c 0.874,0 1.311,0.423 1.311,1.267 v 1.12 c 0,0.904 -0.443,1.357 -1.33,1.357 -0.88,0 -1.32,-0.453 -1.32,-1.357 V 5.255 H 0 V 6.001 C 0,6.949 0.276,7.698 0.829,8.251 1.381,8.803 2.204,9.08 3.296,9.08 4.389,9.08 5.215,8.803 5.773,8.251 6.326,7.698 6.603,6.949 6.603,6.001 V 4.936 C 6.603,4.365 6.484,3.883 6.247,3.488 6.01,3.087 5.673,2.82 5.236,2.687 6.147,2.395 6.603,1.709 6.603,0.628 v -1.493 c 0,-0.941 -0.277,-1.688 -0.83,-2.24 -0.558,-0.553 -1.384,-0.829 -2.477,-0.829 -1.092,0 -1.915,0.276 -2.467,0.829 C 0.276,-2.553 0,-1.806 0,-0.865 Z" /></g><g
           transform="translate(203.4091,64.6217)"
           id="g120"><path
             id="path122"
             style="fill:#ffffff;fill-opacity:1;fill-rule:nonzero;stroke:none"
             d="m 0,0 c 0.413,0 0.689,-0.112 0.829,-0.337 0.133,-0.225 0.14,-0.51 0.018,-0.856 -0.127,-0.34 -0.394,-0.923 -0.801,-1.749 -0.413,-0.826 -0.69,-1.35 -0.829,-1.575 h -1.248 c 0.049,0.237 0.185,0.85 0.41,1.839 0.225,0.99 0.343,1.503 0.355,1.539 0.073,0.383 0.207,0.668 0.401,0.857 C -0.671,-0.094 -0.382,0 0,0" /></g><g
           transform="translate(206.6591,71.0509)"
           id="g124"><path
             id="path126"
             style="fill:#ffffff;fill-opacity:1;fill-rule:nonzero;stroke:none"
             d="m 0,0 v 2.204 l 2.259,1.867 h 1.94 V -8.651 H 2.204 V 1.794 Z" /></g><g
           transform="translate(217.331,71.0694)"
           id="g128"><path
             id="path130"
             style="fill:#ffffff;fill-opacity:1;fill-rule:nonzero;stroke:none"
             d="M 0,0 -1.676,-4.736 H 1.047 V 0 L 1.083,3.151 Z M 4.089,-4.736 V -6.393 H 2.951 V -8.67 H 0.974 v 2.277 h -4.48 v 1.73 l 3.187,8.715 h 3.27 v -8.788 z" /></g><path
           id="path132"
           style="fill:#ffffff;fill-opacity:1;fill-rule:nonzero;stroke:none"
           d="m 230.251,68.647 h 4.38 v -1.712 h -4.38 z" /><g
           transform="translate(246.5766,62.3995)"
           id="g134"><path
             id="path136"
             style="fill:#ffffff;fill-opacity:1;fill-rule:nonzero;stroke:none"
             d="M 0,0 H -2.03 V 12.722 H 3.698 V 10.946 H 0 V 6.939 H 3.343 V 5.164 H 0 Z" /></g><g
           transform="translate(258.0229,65.441)"
           id="g138"><path
             id="path140"
             style="fill:#ffffff;fill-opacity:1;fill-rule:nonzero;stroke:none"
             d="m 0,0 v 6.639 c 0,0.917 -0.495,1.375 -1.484,1.375 -0.996,0 -1.495,-0.458 -1.495,-1.375 V 0 c 0,-0.935 0.499,-1.402 1.495,-1.402 C -0.495,-1.402 0,-0.935 0,0 m 2.021,6.73 v -6.821 c 0,-0.959 -0.297,-1.721 -0.892,-2.286 -0.589,-0.564 -1.46,-0.847 -2.613,-0.847 -1.161,0 -2.035,0.283 -2.623,0.847 -0.589,0.565 -0.884,1.327 -0.884,2.286 V 6.73 c 0,0.947 0.295,1.706 0.884,2.277 0.588,0.571 1.462,0.856 2.623,0.856 1.153,0 2.024,-0.285 2.613,-0.856 C 1.724,8.436 2.021,7.677 2.021,6.73" /></g><g
           transform="translate(265.7074,73.3458)"
           id="g142"><path
             id="path144"
             style="fill:#ffffff;fill-opacity:1;fill-rule:nonzero;stroke:none"
             d="m 0,0 v -4.38 h 1.267 c 1.007,0 1.511,0.446 1.511,1.338 v 1.685 C 2.778,-0.452 2.274,0 1.267,0 Z M 5.109,-10.946 H 2.896 l -1.602,4.79 H 1.267 0 v -4.79 H -2.013 V 1.776 h 3.28 C 2.426,1.776 3.303,1.494 3.898,0.929 4.499,0.358 4.8,-0.397 4.8,-1.338 v -1.704 c 0,-1.305 -0.523,-2.212 -1.567,-2.723 z" /></g><g
           transform="translate(279.7582,75.1217)"
           id="g146"><path
             id="path148"
             style="fill:#ffffff;fill-opacity:1;fill-rule:nonzero;stroke:none"
             d="M 0,0 V -1.776 H -2.35 V -12.722 H -4.39 V -1.776 H -6.738 V 0 Z" /></g><g
           transform="translate(294.1078,75.1217)"
           id="g150"><path
             id="path152"
             style="fill:#ffffff;fill-opacity:1;fill-rule:nonzero;stroke:none"
             d="m 0,0 h 2.223 l -2.742,-6.174 2.923,-6.548 H 0.109 l -2.777,6.511 z m -5.091,0 h 2.031 v -12.722 h -2.031 z" /></g><g
           transform="translate(304.1059,65.441)"
           id="g154"><path
             id="path156"
             style="fill:#ffffff;fill-opacity:1;fill-rule:nonzero;stroke:none"
             d="m 0,0 v 6.639 c 0,0.917 -0.495,1.375 -1.484,1.375 -0.996,0 -1.495,-0.458 -1.495,-1.375 V 0 c 0,-0.935 0.499,-1.402 1.495,-1.402 C -0.495,-1.402 0,-0.935 0,0 m 2.021,6.73 v -6.821 c 0,-0.959 -0.297,-1.721 -0.892,-2.286 -0.589,-0.564 -1.46,-0.847 -2.613,-0.847 -1.161,0 -2.035,0.283 -2.623,0.847 -0.589,0.565 -0.884,1.327 -0.884,2.286 V 6.73 c 0,0.947 0.295,1.706 0.884,2.277 0.588,0.571 1.462,0.856 2.623,0.856 1.153,0 2.024,-0.285 2.613,-0.856 C 1.724,8.436 2.021,7.677 2.021,6.73" /></g><g
           transform="translate(314.5863,66.5797)"
           id="g158"><path
             id="path160"
             style="fill:#ffffff;fill-opacity:1;fill-rule:nonzero;stroke:none"
             d="m 0,0 h 2.022 v -1.229 c 0,-0.96 -0.297,-1.722 -0.892,-2.287 -0.589,-0.564 -1.461,-0.846 -2.614,-0.846 -1.16,0 -2.035,0.282 -2.623,0.846 -0.589,0.565 -0.883,1.327 -0.883,2.287 v 6.82 c 0,0.948 0.294,1.706 0.883,2.277 0.588,0.571 1.463,0.856 2.623,0.856 1.153,0 2.025,-0.285 2.614,-0.856 C 1.725,7.297 2.022,6.539 2.022,5.591 V 4.326 L 0,4.326 V 5.5 c 0,0.917 -0.494,1.375 -1.484,1.375 -0.995,0 -1.494,-0.458 -1.494,-1.375 v -6.639 c 0,-0.935 0.499,-1.402 1.494,-1.402 0.99,0 1.484,0.467 1.484,1.402 z" /></g><g
           transform="translate(325.4867,75.1217)"
           id="g162"><path
             id="path164"
             style="fill:#ffffff;fill-opacity:1;fill-rule:nonzero;stroke:none"
             d="M 0,0 H 2.049 V -12.722 H 0 v 5.355 h -3.324 v -5.355 H -5.355 V 0 h 2.031 V -5.583 H 0 Z" /></g><path
           id="path166"
           style="fill:#ffffff;fill-opacity:1;fill-rule:nonzero;stroke:none"
           d="m 333.389,62.4 h -2.03 v 12.722 h 2.03 z" /><g
           transform="translate(316.476,327.0772)"
           id="g168"><path
             id="path170"
             style="fill:#f4b50c;fill-opacity:1;fill-rule:nonzero;stroke:none"
             d="M 0,0 C -0.008,0.023 -0.023,0.046 -0.039,0.07 L 0.015,-0.015 C 0.015,-0.007 0.008,0 0,0 M -2.831,4.42 -2.839,4.428 C -2.847,4.451 -2.862,4.466 -2.878,4.49 -2.886,4.505 -2.893,4.521 -2.9,4.536 l 0.046,-0.07 0.053,-0.092 C -2.809,4.389 -2.816,4.405 -2.831,4.42 M -3.187,4.976 C -3.225,5.03 -3.256,5.091 -3.294,5.153 L -3.179,4.976 V 4.968 c -0.008,0 -0.008,0.008 -0.008,0.008 m -8.02,14.988 c 0,0.008 -0.008,0.008 -0.008,0.008 -0.007,0.016 -0.014,0.031 -0.03,0.047 -0.008,0.023 -0.016,0.038 -0.031,0.054 l 0.069,-0.101 z m -1.627,2.538 -0.039,0.062 0.062,-0.085 c 0.039,-0.069 0.084,-0.139 0.131,-0.208 -0.054,0.085 -0.1,0.162 -0.154,0.231 m -0.532,0.833 c 0.008,-0.007 0.015,-0.015 0.022,-0.023 l 0.039,-0.069 c -0.023,0.031 -0.039,0.062 -0.061,0.092 m -0.279,0.433 c -0.006,0.007 -0.006,0.015 -0.014,0.023 -0.016,0.03 -0.039,0.054 -0.047,0.084 l 0.077,-0.131 c 0,0.008 -0.008,0.016 -0.016,0.024 m -2.539,1.487 c -0.015,0.031 -0.039,0.061 -0.053,0.092 -0.024,0.031 -0.047,0.07 -0.071,0.101 -0.006,0.015 -0.022,0.038 -0.038,0.061 -0.023,0.039 -0.046,0.07 -0.061,0.108 0.023,-0.031 0.046,-0.069 0.069,-0.108 0.03,-0.053 0.062,-0.108 0.101,-0.162 0.022,-0.038 0.053,-0.077 0.085,-0.123 0,-0.008 0.006,-0.023 0.014,-0.031 -0.014,0.023 -0.03,0.046 -0.046,0.062 m -0.494,0.771 c -0.008,0.016 -0.008,0.016 -0.008,0.023 0.008,-0.015 0.016,-0.03 0.032,-0.046 0.015,-0.031 0.039,-0.062 0.061,-0.1 -0.03,0.046 -0.053,0.085 -0.085,0.123 m -0.123,0.193 c -0.008,0.023 -0.023,0.038 -0.031,0.054 0.016,-0.016 0.023,-0.039 0.039,-0.054 z m -0.17,0.262 c -0.008,0.023 -0.022,0.046 -0.038,0.07 l 0.016,-0.016 c 0.007,-0.023 0.022,-0.046 0.038,-0.069 -0.008,0.008 -0.008,0.015 -0.016,0.015 m -0.269,0.424 v 0.016 c 0,-0.008 0,-0.008 0.008,-0.016 z m -0.039,0.07 c -0.008,0.007 -0.008,0.007 -0.015,0.015 0.007,0 0.007,0 0.015,-0.008 z M -17.75,27.7 c -0.007,0.015 -0.015,0.031 -0.022,0.039 0.007,-0.008 0.015,-0.016 0.022,-0.024 0,-0.015 0.008,-0.023 0.016,-0.03 -0.008,0.007 -0.008,0.015 -0.016,0.015 m -0.185,0.293 c 0,0 0,0.008 -0.007,0.008 h 0.007 z m -0.108,0.17 h 0.008 c 0,-0.016 0.008,-0.023 0.015,-0.038 -0.007,0.015 -0.015,0.03 -0.023,0.038 m -0.586,0.902 c -0.016,0.031 -0.031,0.054 -0.046,0.078 -0.023,0.046 -0.054,0.085 -0.077,0.123 0.015,-0.016 0.023,-0.023 0.03,-0.038 0.008,-0.016 0.024,-0.032 0.032,-0.047 l 0.115,-0.185 c -0.016,0.023 -0.038,0.046 -0.054,0.069 m -0.548,0.864 0.024,-0.023 c 0.007,-0.015 0.023,-0.038 0.03,-0.054 -0.023,0.023 -0.038,0.054 -0.054,0.077 m -0.663,1.042 c 0.008,-0.008 0.016,-0.008 0.016,-0.016 l 0.008,-0.023 c -0.016,0.015 -0.024,0.031 -0.024,0.039 m -0.193,0.293 c -0.007,0.015 -0.023,0.038 -0.03,0.054 0.023,-0.024 0.038,-0.054 0.061,-0.085 0.008,-0.008 0.008,-0.008 0.008,-0.023 -0.016,0.023 -0.031,0.039 -0.039,0.054 m -0.139,0.215 c -0.03,0.047 -0.061,0.101 -0.093,0.147 -0.022,0.039 -0.053,0.085 -0.077,0.124 -0.03,0.038 -0.054,0.077 -0.069,0.107 -0.015,0.024 -0.023,0.032 -0.023,0.047 0.008,-0.015 0.016,-0.031 0.031,-0.047 0.031,-0.053 0.069,-0.107 0.108,-0.169 0.038,-0.069 0.085,-0.139 0.131,-0.209 0.023,-0.03 0.046,-0.061 0.061,-0.1 -0.022,0.031 -0.045,0.07 -0.069,0.1 m -0.347,0.548 c 0.008,-0.015 0.023,-0.023 0.031,-0.038 0.008,-0.016 0.008,-0.023 0.015,-0.039 -0.015,0.031 -0.03,0.054 -0.046,0.077 m -0.039,0.062 -0.023,0.038 c 0.009,-0.007 0.016,-0.023 0.031,-0.038 0.008,-0.015 0.016,-0.023 0.016,-0.039 -0.008,0.016 -0.016,0.032 -0.024,0.039 m -0.463,0.718 0.016,-0.008 c 0,-0.016 0.008,-0.024 0.016,-0.039 -0.016,0.023 -0.024,0.039 -0.032,0.047 M 78.952,-33.852 C 68.798,-20.418 54.984,-10.528 40.5,-2.233 15.761,11.934 -11.793,24.034 -30.863,45.962 c -2.578,2.959 -7.671,7.996 -8.902,11.744 5.149,-15.687 13.466,-30.59 24.227,-43.283 11.565,-13.641 25.869,-23.675 40.767,-33.335 0.347,-0.225 0.694,-0.449 1.041,-0.673 24.964,-16.161 45.437,-37.209 59.496,-63.567 2.067,-3.875 3.983,-7.831 5.742,-11.856 1.096,-2.506 5.147,-9.084 4.619,-11.749 1.173,5.917 1.79,12.033 1.79,18.297 0,20.28 -7.198,39.041 -18.965,54.608" /></g><g
           transform="translate(326.6957,311.1334)"
           id="g172"><path
             id="path174"
             style="fill:#34a23f;fill-opacity:1;fill-rule:nonzero;stroke:none"
             d="m 0,0 c -0.077,0.124 -0.161,0.254 -0.238,0.378 l 0.046,-0.27 C -0.131,0.069 -0.062,0.039 0,0 69.971,-109.396 77.793,-213.568 77.793,-213.568 85.43,-194.13 89.626,-172.964 89.626,-150.81 89.626,-85.722 53.395,-29.096 0,0" /></g><g
           transform="translate(499.0756,362.4996)"
           id="g176"><path
             id="path178"
             style="fill:#f4b50c;fill-opacity:1;fill-rule:nonzero;stroke:none"
             d="m 0,0 c -4.319,-45.495 -40.581,-82.69 -87.465,-86.825 -3.849,9.11 -9.21,17.418 -15.766,24.63 l 25.077,6.965 c 29.35,11.008 45.811,21.969 64.933,40.374 C -8.492,-10.298 -3.741,-5.43 0,0" /></g><g
           transform="translate(422.4926,336.9664)"
           id="g180"><path
             id="path182"
             style="fill:#34a23f;fill-opacity:1;fill-rule:nonzero;stroke:none"
             d="m 0,0 c 0,-12.567 -10.188,-22.755 -22.756,-22.755 -12.567,0 -22.755,10.188 -22.755,22.755 0,12.567 10.188,22.755 22.755,22.755 C -10.188,22.755 0,12.567 0,0" /></g><g
           transform="translate(323.3773,129.4547)"
           id="g184"><path
             id="path186"
             style="fill:#211d1d;fill-opacity:1;fill-rule:nonzero;stroke:none"
             d="m 0,0 -3.759,-2.487 c -1.048,-0.686 -1.709,-1.278 -1.982,-1.777 -0.287,-0.498 -0.431,-1.247 -0.431,-2.244 v -1.795 h 9.164 v -3.61 h -13.259 v 5.592 c 0,1.534 0.268,2.774 0.804,3.722 0.536,0.935 1.402,1.801 2.6,2.599 l 4.02,2.637 c 0.66,0.436 1.104,0.904 1.328,1.403 0.212,0.498 0.319,1.222 0.319,2.168 v 1.759 c 0,0.922 -0.2,1.62 -0.599,2.095 -0.411,0.46 -1.092,0.691 -2.039,0.691 -1.758,0 -2.637,-0.929 -2.637,-2.786 V 5.928 h -4.057 v 2.188 c 0,1.946 0.554,3.485 1.664,4.619 1.109,1.135 2.787,1.702 5.03,1.702 2.27,0 3.958,-0.567 5.068,-1.702 1.11,-1.134 1.665,-2.673 1.665,-4.619 V 5.779 C 2.899,4.407 2.681,3.272 2.244,2.375 1.795,1.477 1.047,0.686 0,0" /></g><g
           transform="translate(333.6449,137.5338)"
           id="g188"><path
             id="path190"
             style="fill:#211d1d;fill-opacity:1;fill-rule:nonzero;stroke:none"
             d="m 0,0 v -13.857 c 0,-1.895 0.891,-2.843 2.674,-2.843 1.782,0 2.674,0.948 2.674,2.843 V 0 C 5.348,1.895 4.456,2.843 2.674,2.843 0.891,2.843 0,1.895 0,0 M 9.443,0.112 V -13.97 c 0,-1.969 -0.567,-3.528 -1.702,-4.675 -1.134,-1.147 -2.823,-1.721 -5.067,-1.721 -2.244,0 -3.935,0.574 -5.069,1.721 -1.147,1.147 -1.72,2.706 -1.72,4.675 V 0.112 c 0,1.945 0.573,3.497 1.72,4.657 1.134,1.159 2.825,1.739 5.069,1.739 2.244,0 3.933,-0.58 5.067,-1.739 1.135,-1.16 1.702,-2.712 1.702,-4.657" /></g><g
           transform="translate(323.3773,99.9146)"
           id="g192"><path
             id="path194"
             style="fill:#211d1d;fill-opacity:1;fill-rule:nonzero;stroke:none"
             d="m 0,0 -3.759,-2.487 c -1.048,-0.686 -1.709,-1.278 -1.982,-1.777 -0.287,-0.498 -0.431,-1.247 -0.431,-2.244 v -1.795 h 9.164 v -3.61 h -13.259 v 5.592 c 0,1.534 0.268,2.774 0.804,3.722 0.536,0.935 1.402,1.801 2.6,2.599 l 4.02,2.637 c 0.66,0.436 1.104,0.904 1.328,1.403 0.212,0.498 0.319,1.222 0.319,2.168 v 1.759 c 0,0.922 -0.2,1.62 -0.599,2.095 -0.411,0.46 -1.092,0.691 -2.039,0.691 -1.758,0 -2.637,-0.929 -2.637,-2.786 V 5.928 h -4.057 v 2.188 c 0,1.946 0.554,3.485 1.664,4.619 1.109,1.135 2.787,1.702 5.03,1.702 2.27,0 3.958,-0.567 5.068,-1.702 1.11,-1.134 1.665,-2.673 1.665,-4.619 V 5.779 C 2.899,4.407 2.681,3.272 2.244,2.375 1.795,1.477 1.047,0.686 0,0" /></g><g
           transform="translate(328.894,95.7071)"
           id="g196"><path
             id="path198"
             style="fill:#211d1d;fill-opacity:1;fill-rule:nonzero;stroke:none"
             d="m 0,0 h 4.059 v -1.608 c 0,-1.871 0.903,-2.806 2.711,-2.806 1.82,0 2.73,0.935 2.73,2.806 v 2.674 c 0,1.732 -0.897,2.6 -2.692,2.6 H 4.862 v 3.609 h 1.946 c 1.795,0 2.692,0.866 2.692,2.599 v 2.3 c 0,1.858 -0.91,2.786 -2.73,2.786 -1.808,0 -2.711,-0.928 -2.711,-2.786 V 10.79 H 0 v 1.534 c 0,1.945 0.567,3.485 1.702,4.619 1.134,1.135 2.823,1.702 5.068,1.702 2.244,0 3.94,-0.567 5.086,-1.702 1.135,-1.134 1.703,-2.674 1.703,-4.619 v -2.188 c 0,-1.172 -0.244,-2.163 -0.73,-2.973 C 12.343,6.34 11.651,5.791 10.753,5.517 12.623,4.918 13.559,3.509 13.559,1.291 v -3.068 c 0,-1.932 -0.568,-3.466 -1.703,-4.6 C 10.71,-7.512 9.014,-8.079 6.77,-8.079 4.525,-8.079 2.836,-7.512 1.702,-6.377 0.567,-5.243 0,-3.709 0,-1.777 Z" /></g><g
           transform="translate(85.329,234.2677)"
           id="g200"><path
             id="path202"
             style="fill:#211d1d;fill-opacity:1;fill-rule:nonzero;stroke:none"
             d="m 0,0 -0.081,-0.168 -24.172,-48.518 h -12.502 l 24.221,48.63 -21.48,42.17 h 12.559 L -6.192,12.148 Z" /></g><g
           transform="translate(135.4584,328.3531)"
           id="g204"><path
             id="path206"
             style="fill:#211d1d;fill-opacity:1;fill-rule:nonzero;stroke:none"
             d="M 0,0 -48.926,-92.001 -55.253,-79.719 -12.546,0 Z" /></g><g
           transform="translate(135.3085,263.7652)"
           id="g208"><path
             id="path210"
             style="fill:#211d1d;fill-opacity:1;fill-rule:nonzero;stroke:none"
             d="m 0,0 c -11.226,0 -20.359,-9.133 -20.359,-20.359 0,-11.226 9.133,-20.359 20.359,-20.359 11.226,0 20.359,9.133 20.359,20.359 C 20.359,-9.133 11.226,0 0,0 m 0,-52.177 c -17.545,0 -31.818,14.274 -31.818,31.818 0,17.545 14.273,31.818 31.818,31.818 17.544,0 31.818,-14.273 31.818,-31.818 0,-17.544 -14.274,-31.818 -31.818,-31.818" /></g><g
           transform="translate(204.6947,211.7227)"
           id="g212"><path
             id="path214"
             style="fill:#211d1d;fill-opacity:1;fill-rule:nonzero;stroke:none"
             d="m 0,0 c -17.134,0 -31.074,13.939 -31.074,31.073 v 32.57 h 11.191 v -32.57 c 0,-10.963 8.92,-19.883 19.883,-19.883 10.963,0 19.882,8.92 19.882,19.883 v 32.57 H 31.073 V 31.073 C 31.073,13.939 17.133,0 0,0" /></g><g
           transform="translate(349.2162,211.7223)"
           id="g216"><path
             id="path218"
             style="fill:#211d1d;fill-opacity:1;fill-rule:nonzero;stroke:none"
             d="m 0,0 h -11.19 v 30.704 c 0,10.963 -8.92,19.882 -19.883,19.882 -10.964,0 -19.883,-8.919 -19.883,-19.882 V 0 h -11.19 v 30.704 c 0,17.134 13.939,31.073 31.073,31.073 C -13.939,61.777 0,47.838 0,30.704 Z" /></g><path
           id="path220"
           style="fill:#211d1d;fill-opacity:1;fill-rule:nonzero;stroke:none"
           d="M 268.99,212.092 H 257.8 v 80.46 h 11.19 z" /><path
           id="path222"
           style="fill:#211d1d;fill-opacity:1;fill-rule:nonzero;stroke:none"
           d="m 298.26,212.092 h -11.19 v 80.46 h 11.19 z" /><path
           id="path224"
           style="fill:#211d1d;fill-opacity:1;fill-rule:nonzero;stroke:none"
           d="m 283.709,262.678 h -42.464 v 11.19 h 42.464 z" /><g
           transform="translate(55.7406,188.2213)"
           id="g226"><path
             id="path228"
             style="fill:#ffffff;fill-opacity:1;fill-rule:nonzero;stroke:none"
             d="M 0,0 -0.278,0.138 23.056,46.885 3.147,84.104 3.421,84.25 23.406,46.89 23.37,46.817 Z" /></g><g
           transform="translate(85.4662,246.2686)"
           id="g230"><path
             id="path232"
             style="fill:#ffffff;fill-opacity:1;fill-rule:nonzero;stroke:none"
             d="m 0,0 -0.274,0.146 42.63,79.851 0.274,-0.146 z" /></g><g
           transform="translate(135.226,270.2716)"
           id="g234"><path
             id="path236"
             style="fill:#ffffff;fill-opacity:1;fill-rule:nonzero;stroke:none"
             d="m 0,0 c -14.469,0 -26.24,-11.771 -26.24,-26.24 0,-14.468 11.771,-26.239 26.24,-26.239 14.468,0 26.24,11.771 26.24,26.239 C 26.24,-11.771 14.468,0 0,0 m 0,-52.79 c -14.64,0 -26.551,11.911 -26.551,26.55 0,14.64 11.911,26.551 26.551,26.551 14.64,0 26.55,-11.911 26.55,-26.551 0,-14.639 -11.91,-26.55 -26.55,-26.55" /></g><g
           transform="translate(204.6947,217.4815)"
           id="g238"><path
             id="path240"
             style="fill:#ffffff;fill-opacity:1;fill-rule:nonzero;stroke:none"
             d="m 0,0 c -14.64,0 -26.551,11.911 -26.551,26.55 v 26.396 h 0.311 V 26.55 C -26.24,12.082 -14.469,0.311 0,0.311 c 14.468,0 26.24,11.771 26.24,26.239 v 26.396 h 0.31 V 26.55 C 26.55,11.911 14.64,0 0,0" /></g><g
           transform="translate(344.6938,215.7721)"
           id="g242"><path
             id="path244"
             style="fill:#ffffff;fill-opacity:1;fill-rule:nonzero;stroke:none"
             d="m 0,0 h -0.311 v 26.395 c 0,14.468 -11.771,26.24 -26.24,26.24 -14.469,0 -26.239,-11.772 -26.239,-26.24 V 0 h -0.312 v 26.395 c 0,14.64 11.912,26.55 26.551,26.55 C -11.911,52.945 0,41.035 0,26.395 Z" /></g><path
           id="path246"
           style="fill:#ffffff;fill-opacity:1;fill-rule:nonzero;stroke:none"
           d="m 263.55,217.637 h -0.312 v 69.949 h 0.312 z" /><path
           id="path248"
           style="fill:#ffffff;fill-opacity:1;fill-rule:nonzero;stroke:none"
           d="m 291.904,217.637 h -0.312 v 69.949 h 0.312 z" /><path
           id="path250"
           style="fill:#ffffff;fill-opacity:1;fill-rule:nonzero;stroke:none"
           d="m 279.737,268.118 h -13.95 v 0.311 h 13.95 z" /><path
           id="path252"
           style="fill:#ffffff;fill-opacity:1;fill-rule:nonzero;stroke:none"
           d="m 260.862,268.118 h -15.746 v 0.311 h 15.746 z" /><g
           transform="translate(171.3554,311.9132)"
           id="g254"><path
             id="path256"
             style="fill:#be2026;fill-opacity:1;fill-rule:nonzero;stroke:none"
             d="m 0,0 c -0.673,2.593 -3.502,3.603 -6.431,3.603 -5.994,0 -8.821,-3.502 -8.821,-8.553 0,-5.623 2.491,-9.023 12.356,-9.023 1.987,0 3.94,0.101 5.725,0.437 1.481,-0.302 2.929,-0.437 4.174,-0.437 h 2.29 l -0.741,-0.741 c -0.572,-0.573 -1.178,-1.145 -1.178,-2.525 0,-3.065 3.67,-3.974 6.701,-3.974 4.612,0 6.734,1.818 6.734,4.748 0,2.088 -1.078,3.603 -3.3,4.31 2.155,1.549 3.232,4.242 3.232,7.306 0,4.243 -2.02,7.442 -6.532,8.216 L 11.516,0.404 11.65,0.168 c 2.391,0 3.333,-2.02 3.333,-4.343 0,-4.748 -1.245,-6.263 -5.622,-6.263 H 8.216 c 1.582,1.179 2.693,3.064 2.693,5.657 v 2.087 c 0,4.512 -1.784,6.229 -4.882,6.229 -0.977,0 -1.953,-0.269 -2.862,-0.807 z m 0.135,-1.279 c 1.111,0.673 2.222,1.009 3.367,1.009 1.347,0 2.02,-0.605 2.02,-2.559 v -2.39 c 0,-1.246 0,-4.04 -2.593,-4.949 -1.952,0.471 -2.794,1.716 -2.794,4.949 z m -7.408,1.111 c 1.347,0 2.021,-0.64 2.021,-1.987 v -2.694 c 0,-2.559 1.043,-4.343 2.524,-5.589 h -1.211 c -3.839,0 -5.522,0.64 -5.522,6.296 0,2.088 0.303,3.974 2.188,3.974 m 113.066,-5.657 c 0,4.344 2.728,5.96 7.24,5.96 4.343,0 6.902,-1.347 7.441,-4.512 l -2.862,2.458 c -0.674,0.336 -1.482,0.505 -2.391,0.505 -3.367,0 -5.926,-2.391 -5.926,-6.229 0,-4.276 3.165,-6.33 8.552,-6.33 6.33,0 8.418,3.535 8.418,8.316 0,7.475 -7.139,9.293 -13.098,9.293 -6.464,0 -13.031,-2.053 -13.031,-9.293 0,-4.714 2.122,-7.575 6.499,-8.316 l 2.694,2.963 -0.135,0.236 c -2.391,0 -3.401,2.322 -3.401,4.949 m -64.176,0.943 c 0,5.118 -2.997,8.249 -9.899,8.249 -7.037,0 -9.799,-3.333 -9.799,-8.754 0,-4.714 2.122,-7.845 6.499,-8.586 l 2.694,2.963 -0.135,0.236 c -2.391,0 -3.333,2.02 -3.333,5.521 0,3.569 0.639,5.085 4.107,5.085 3.502,0 4.142,-1.516 4.142,-5.085 0,-3.501 -0.943,-5.521 -3.333,-5.521 l -0.135,-0.236 1.953,-2.627 H 51.583 V -13.3 C 49.9,-12.256 49.9,-11.65 49.9,-10.943 V 0.505 c 0,0.707 0,1.313 1.683,2.357 V 3.199 H 42.829 V 2.862 c 1.684,-1.044 1.684,-1.65 1.684,-2.357 V -10.337 H 39.9 c 1.111,1.38 1.717,3.199 1.717,5.455 m 31.179,-9.125 c -3.434,0 -6.633,1.077 -7.946,4.074 h -0.135 l -2.964,-3.233 c -0.908,-0.538 -1.885,-0.807 -2.861,-0.807 -3.098,0 -4.882,1.717 -4.882,5.05 v 9.428 c 0,0.707 0,1.313 -1.684,2.357 v 0.337 h 8.418 V 2.862 C 59.395,1.852 59.395,1.212 59.395,0.505 v -8.249 c 0,-1.246 0.674,-1.852 2.021,-1.852 1.144,0 2.255,0.337 3.367,1.01 v 9.091 c 0,0.707 0,1.313 -1.684,2.357 v 0.337 h 8.418 V 2.862 C 70.169,1.852 70.169,1.212 70.169,0.505 v -8.249 c 0,-1.246 0.775,-1.852 2.627,-1.852 1.953,0 2.896,0.606 2.896,2.424 v 7.677 c 0,0.707 0,1.347 -1.347,2.357 v 0.337 h 8.418 V 2.862 C 81.079,1.818 81.079,1.212 81.079,0.505 v -7.609 c 0,-5.152 -4.108,-6.903 -8.283,-6.903 m 20.27,10 c 0,-3.771 -1.853,-5.69 -5.186,-5.69 -1.381,0 -2.76,0.438 -4.209,1.346 v -1.077 c 0.674,-2.862 3.065,-4.545 6.735,-4.545 5.286,0 8.418,3.367 8.418,8.754 0,4.344 -2.694,8.754 -9.563,8.754 -1.919,0 -3.704,-0.235 -5.421,-0.673 l 1.482,-4.445 0.202,-0.067 c 1.447,1.38 2.524,1.751 4.04,1.751 2.323,0 3.502,-1.987 3.502,-4.108 m 24.681,-6.801 c -1.684,0 -2.728,1.481 -2.728,2.963 0,1.549 1.011,2.895 2.93,2.895 0.807,0 1.683,-0.269 2.66,-0.774 v -0.101 c 0,-2.424 -0.843,-4.983 -2.862,-4.983 M 12.223,-15.859 c 0,1.65 0.37,2.155 1.818,2.155 1.313,0 1.818,-0.808 1.818,-2.424 0,-1.617 -0.404,-2.189 -1.818,-2.189 -1.347,0 -1.818,0.808 -1.818,2.458" /></g></g></g></g></svg>